<?xml version="1.0" standalone="no"?>
<!DOCTYPE svg PUBLIC "-//W3C//DTD SVG 20010904//EN"
 "http://www.w3.org/TR/2001/REC-SVG-20010904/DTD/svg10.dtd">
<svg version="1.0" xmlns="http://www.w3.org/2000/svg"
 width="1200.000000pt" height="1200.000000pt" viewBox="0 0 1200.000000 1200.000000"
 preserveAspectRatio="xMidYMid meet">

<g transform="translate(0.000000,1200.000000) scale(0.100000,-0.100000)"
fill="#000000" stroke="none">
<path d="M1750 6000 l0 -490 525 0 525 0 0 490 0 490 -525 0 -525 0 0 -490z
m1020 0 l0 -460 -495 0 -495 0 0 460 0 460 495 0 495 0 0 -460z"/>
<path d="M2000 6266 c0 -10 13 -16 38 -18 l37 -3 0 -250 0 -250 -38 -3 c-24
-2 -37 -8 -34 -15 2 -8 44 -13 130 -15 106 -2 127 0 127 12 0 10 -13 16 -37
18 l-38 3 -3 101 c-2 86 0 103 15 116 17 15 23 10 101 -89 96 -121 103 -133
73 -133 -12 0 -21 -6 -21 -15 0 -12 20 -15 120 -15 98 0 120 3 120 14 0 8 -12
16 -27 18 -21 2 -50 31 -126 123 -54 66 -110 135 -125 153 l-25 33 99 100 c85
85 103 99 131 99 23 0 33 5 33 15 0 12 -16 15 -85 15 -69 0 -85 -3 -85 -15 0
-10 10 -15 27 -15 26 0 26 0 7 -21 -10 -12 -67 -66 -126 -121 l-108 -100 0
121 0 121 40 0 c29 0 40 4 40 15 0 13 -21 15 -130 15 -106 0 -130 -3 -130 -14z"/>
<path d="M3240 6000 l0 -490 525 0 525 0 0 490 0 490 -525 0 -525 0 0 -490z
m1020 0 l0 -460 -495 0 -495 0 0 460 0 460 495 0 495 0 0 -460z"/>
<path d="M3500 6265 c0 -10 11 -15 35 -15 l35 0 -2 -252 -3 -253 -32 -3 c-21
-2 -33 -9 -33 -18 0 -11 23 -14 125 -14 102 0 125 3 125 14 0 10 -13 16 -37
18 l-38 3 -3 101 c-2 87 0 102 16 117 18 16 22 12 105 -93 48 -61 87 -115 87
-120 0 -6 -9 -10 -20 -10 -11 0 -20 -7 -20 -15 0 -12 20 -15 120 -15 100 0
120 3 120 15 0 9 -9 15 -24 15 -19 0 -52 34 -152 157 l-128 157 104 98 c81 76
110 98 132 98 18 0 28 5 28 15 0 12 -16 15 -85 15 -69 0 -85 -3 -85 -15 0 -10
10 -15 27 -15 25 0 16 -12 -92 -120 -66 -66 -123 -120 -127 -120 -5 0 -8 54
-8 120 l0 120 40 0 c29 0 40 4 40 15 0 13 -21 15 -125 15 -104 0 -125 -2 -125
-15z"/>
<path d="M4730 6000 l0 -490 525 0 525 0 0 490 0 490 -525 0 -525 0 0 -490z
m1020 0 l0 -460 -495 0 -495 0 0 460 0 460 495 0 495 0 0 -460z"/>
<path d="M4970 6266 c0 -12 10 -16 35 -16 l35 0 0 -255 0 -255 -35 0 c-25 0
-35 -4 -35 -16 0 -14 19 -15 173 -12 190 5 235 16 299 68 20 17 49 56 65 88
52 107 32 267 -44 338 -62 58 -101 67 -305 72 -167 3 -188 2 -188 -12z m325
-27 c52 -15 99 -66 114 -123 14 -56 14 -189 0 -239 -13 -49 -61 -103 -102
-116 -18 -5 -60 -13 -94 -16 l-63 -7 0 256 0 256 53 0 c28 0 70 -5 92 -11z"/>
<path d="M6220 6000 l0 -490 525 0 525 0 0 490 0 490 -525 0 -525 0 0 -490z
m1020 0 l0 -460 -495 0 -495 0 0 460 0 460 495 0 495 0 0 -460z"/>
<path d="M6660 6281 c-78 -25 -137 -81 -173 -160 -15 -34 -21 -67 -21 -126 0
-126 53 -218 152 -266 59 -28 186 -31 245 -5 57 25 112 80 138 139 32 70 33
199 2 268 -25 54 -79 110 -131 135 -41 19 -171 29 -212 15z m170 -57 c99 -84
116 -293 33 -416 -45 -67 -131 -87 -193 -45 -123 82 -126 390 -5 467 46 30
125 27 165 -6z"/>
<path d="M7710 6000 l0 -490 525 0 525 0 0 490 0 490 -525 0 -525 0 0 -490z
m1020 0 l0 -460 -495 0 -495 0 0 460 0 460 495 0 495 0 0 -460z"/>
<path d="M7950 6265 c0 -10 11 -15 35 -15 l35 0 -2 -252 -3 -253 -32 -3 c-21
-2 -33 -9 -33 -18 0 -11 18 -14 90 -14 73 0 90 3 90 15 0 10 -11 15 -35 15
l-35 0 0 221 c0 121 3 218 8 216 4 -3 77 -109 162 -236 l155 -230 38 -1 37 0
0 270 0 270 35 0 c24 0 35 5 35 15 0 12 -17 15 -90 15 -73 0 -90 -3 -90 -15 0
-10 11 -15 35 -15 l35 0 0 -202 0 -202 -145 217 -146 217 -89 0 c-73 0 -90 -3
-90 -15z"/>
<path d="M9200 6000 l0 -490 525 0 525 0 0 490 0 490 -525 0 -525 0 0 -490z
m1020 0 l0 -460 -495 0 -495 0 0 460 0 460 495 0 495 0 0 -460z"/>
<path d="M9645 6272 c-66 -23 -109 -54 -143 -105 -40 -59 -52 -99 -52 -177 0
-189 163 -312 369 -279 36 5 87 22 113 36 l48 26 0 79 c0 77 0 78 25 78 18 0
25 5 25 20 0 19 -7 20 -120 20 -113 0 -120 -1 -120 -20 0 -17 7 -20 50 -20
l50 0 0 -59 c0 -78 -5 -88 -53 -113 -85 -43 -196 -5 -240 84 -30 62 -41 152
-27 229 21 122 80 179 184 179 78 0 132 -29 164 -88 37 -67 52 -56 52 38 0 73
-2 80 -20 80 -11 0 -20 -7 -20 -15 0 -18 5 -19 -58 5 -65 25 -159 26 -227 2z"/>
</g>
</svg>
